<svg width="522" height="166" viewBox="0 0 522 166" fill="none" xmlns="http://www.w3.org/2000/svg">
<path d="M1.3 158V143.9H3.8V158H1.3ZM10.8381 158.16C9.83813 158.16 8.95813 157.953 8.19813 157.54C7.45146 157.127 6.87146 156.533 6.45813 155.76C6.04479 154.987 5.83813 154.087 5.83813 153.06C5.83813 152.033 6.04479 151.14 6.45813 150.38C6.87146 149.607 7.45146 149.013 8.19813 148.6C8.95813 148.187 9.83813 147.98 10.8381 147.98C11.8381 147.98 12.7115 148.187 13.4581 148.6C14.2181 149.013 14.7981 149.607 15.1981 150.38C15.6115 151.14 15.8181 152.033 15.8181 153.06C15.8181 154.087 15.6115 154.987 15.1981 155.76C14.7981 156.533 14.2181 157.127 13.4581 157.54C12.7115 157.953 11.8381 158.16 10.8381 158.16ZM10.8181 156.22C11.6315 156.22 12.2515 155.953 12.6781 155.42C13.1048 154.887 13.3181 154.1 13.3181 153.06C13.3181 152.033 13.1048 151.253 12.6781 150.72C12.2515 150.173 11.6381 149.9 10.8381 149.9C10.0381 149.9 9.41813 150.173 8.97813 150.72C8.55146 151.253 8.33813 152.033 8.33813 153.06C8.33813 154.1 8.55146 154.887 8.97813 155.42C9.40479 155.953 10.0181 156.22 10.8181 156.22ZM27.402 148.22V157.1C27.402 158.633 26.9754 159.793 26.122 160.58C25.282 161.367 24.0354 161.76 22.382 161.76C21.5287 161.76 20.7087 161.647 19.922 161.42C19.1354 161.207 18.4487 160.9 17.862 160.5L18.562 158.74C19.7754 159.473 21.0287 159.84 22.322 159.84C24.0554 159.84 24.922 158.987 24.922 157.28V156C24.6287 156.547 24.202 156.973 23.642 157.28C23.082 157.573 22.442 157.72 21.722 157.72C20.8687 157.72 20.1087 157.52 19.442 157.12C18.7887 156.707 18.2754 156.133 17.902 155.4C17.5287 154.667 17.342 153.82 17.342 152.86C17.342 151.9 17.522 151.053 17.882 150.32C18.2554 149.573 18.7754 149 19.442 148.6C20.1087 148.187 20.8687 147.98 21.722 147.98C22.442 147.98 23.082 148.133 23.642 148.44C24.202 148.733 24.6287 149.153 24.922 149.7V148.22H27.402ZM22.382 155.78C23.182 155.78 23.802 155.52 24.242 155C24.6954 154.48 24.922 153.767 24.922 152.86C24.922 151.94 24.6954 151.22 24.242 150.7C23.802 150.18 23.182 149.92 22.382 149.92C21.5954 149.92 20.9754 150.18 20.522 150.7C20.0687 151.22 19.842 151.94 19.842 152.86C19.842 153.753 20.0687 154.467 20.522 155C20.9754 155.52 21.5954 155.78 22.382 155.78ZM34.4514 158.16C33.4514 158.16 32.5714 157.953 31.8114 157.54C31.0647 157.127 30.4847 156.533 30.0714 155.76C29.6581 154.987 29.4514 154.087 29.4514 153.06C29.4514 152.033 29.6581 151.14 30.0714 150.38C30.4847 149.607 31.0647 149.013 31.8114 148.6C32.5714 148.187 33.4514 147.98 34.4514 147.98C35.4514 147.98 36.3247 148.187 37.0714 148.6C37.8314 149.013 38.4114 149.607 38.8114 150.38C39.2247 151.14 39.4314 152.033 39.4314 153.06C39.4314 154.087 39.2247 154.987 38.8114 155.76C38.4114 156.533 37.8314 157.127 37.0714 157.54C36.3247 157.953 35.4514 158.16 34.4514 158.16ZM34.4314 156.22C35.2447 156.22 35.8647 155.953 36.2914 155.42C36.7181 154.887 36.9314 154.1 36.9314 153.06C36.9314 152.033 36.7181 151.253 36.2914 150.72C35.8647 150.173 35.2514 149.9 34.4514 149.9C33.6514 149.9 33.0314 150.173 32.5914 150.72C32.1647 151.253 31.9514 152.033 31.9514 153.06C31.9514 154.1 32.1647 154.887 32.5914 155.42C33.0181 155.953 33.6314 156.22 34.4314 156.22ZM41.8483 153.64V151.66H47.8083V153.64H41.8483ZM56.9002 150.06L55.4402 150.2C53.7868 150.373 52.9602 151.213 52.9602 152.72V158H50.4602V148.22H52.8402V149.94C53.3468 148.767 54.3935 148.127 55.9802 148.02L56.7402 147.96L56.9002 150.06ZM67.3611 143.9V158H64.8811V156.42C64.5878 156.967 64.1611 157.393 63.6011 157.7C63.0544 158.007 62.4278 158.16 61.7211 158.16C60.8811 158.16 60.1278 157.947 59.4611 157.52C58.8078 157.093 58.2944 156.493 57.9211 155.72C57.5611 154.933 57.3811 154.033 57.3811 153.02C57.3811 152.007 57.5611 151.12 57.9211 150.36C58.2944 149.6 58.8078 149.013 59.4611 148.6C60.1144 148.187 60.8678 147.98 61.7211 147.98C62.4278 147.98 63.0544 148.127 63.6011 148.42C64.1478 148.713 64.5678 149.127 64.8611 149.66V143.9H67.3611ZM62.3811 156.22C63.1811 156.22 63.7944 155.947 64.2211 155.4C64.6611 154.853 64.8811 154.073 64.8811 153.06C64.8811 152.047 64.6611 151.273 64.2211 150.74C63.7944 150.193 63.1878 149.92 62.4011 149.92C61.6011 149.92 60.9811 150.187 60.5411 150.72C60.1011 151.253 59.8811 152.02 59.8811 153.02C59.8811 154.033 60.1011 154.82 60.5411 155.38C60.9811 155.94 61.5944 156.22 62.3811 156.22ZM69.9928 153.64V151.66H75.9528V153.64H69.9928ZM82.3414 158.16C81.4747 158.16 80.6747 158.053 79.9414 157.84C79.2214 157.627 78.6081 157.32 78.1014 156.92L78.8014 155.18C79.8414 155.94 81.0347 156.32 82.3814 156.32C82.9547 156.32 83.3881 156.227 83.6814 156.04C83.9881 155.853 84.1414 155.587 84.1414 155.24C84.1414 154.947 84.0347 154.72 83.8214 154.56C83.6214 154.4 83.2547 154.253 82.7214 154.12L81.1214 153.76C80.2147 153.56 79.5414 153.233 79.1014 152.78C78.6614 152.327 78.4414 151.74 78.4414 151.02C78.4414 150.42 78.6081 149.893 78.9414 149.44C79.2881 148.973 79.7614 148.613 80.3614 148.36C80.9747 148.107 81.6814 147.98 82.4814 147.98C83.1747 147.98 83.8414 148.087 84.4814 148.3C85.1347 148.513 85.7081 148.813 86.2014 149.2L85.5014 150.9C84.4881 150.167 83.4747 149.8 82.4614 149.8C81.9147 149.8 81.4881 149.9 81.1814 150.1C80.8747 150.3 80.7214 150.58 80.7214 150.94C80.7214 151.207 80.8147 151.427 81.0014 151.6C81.2014 151.773 81.5147 151.907 81.9414 152L83.6014 152.38C84.5747 152.593 85.2881 152.933 85.7414 153.4C86.1947 153.853 86.4214 154.453 86.4214 155.2C86.4214 156.107 86.0547 156.827 85.3214 157.36C84.5881 157.893 83.5947 158.16 82.3414 158.16ZM93.3508 156.28C93.6441 156.28 93.9508 156.26 94.2708 156.22L94.1508 158.08C93.7508 158.12 93.3841 158.14 93.0508 158.14C91.6774 158.14 90.6641 157.827 90.0108 157.2C89.3574 156.56 89.0308 155.613 89.0308 154.36V150.1H87.1508V148.22H89.0308V145.3H91.5308V148.22H94.1108V150.1H91.5308V154.32C91.5308 155.627 92.1374 156.28 93.3508 156.28ZM99.9336 147.98C101.307 147.98 102.327 148.313 102.994 148.98C103.66 149.647 103.994 150.673 103.994 152.06V158H101.614V156.5C101.387 157.02 101.027 157.427 100.534 157.72C100.054 158.013 99.4936 158.16 98.8536 158.16C98.2003 158.16 97.6069 158.027 97.0736 157.76C96.5403 157.493 96.1203 157.127 95.8136 156.66C95.5069 156.193 95.3536 155.673 95.3536 155.1C95.3536 154.38 95.5336 153.813 95.8936 153.4C96.2669 152.987 96.8669 152.687 97.6936 152.5C98.5203 152.313 99.6603 152.22 101.114 152.22H101.614V151.76C101.614 151.093 101.467 150.613 101.174 150.32C100.894 150.027 100.42 149.88 99.7536 149.88C99.2336 149.88 98.6869 149.973 98.1136 150.16C97.5536 150.333 97.0003 150.58 96.4536 150.9L95.7536 149.18C96.3003 148.833 96.9603 148.547 97.7336 148.32C98.5069 148.093 99.2403 147.98 99.9336 147.98ZM99.3536 156.36C100.02 156.36 100.56 156.14 100.974 155.7C101.4 155.247 101.614 154.667 101.614 153.96V153.54H101.254C100.36 153.54 99.6669 153.58 99.1736 153.66C98.6803 153.74 98.3269 153.88 98.1136 154.08C97.9003 154.28 97.7936 154.553 97.7936 154.9C97.7936 155.327 97.9403 155.68 98.2336 155.96C98.5269 156.227 98.9003 156.36 99.3536 156.36ZM111.534 156.28C111.828 156.28 112.134 156.26 112.454 156.22L112.334 158.08C111.934 158.12 111.568 158.14 111.234 158.14C109.861 158.14 108.848 157.827 108.194 157.2C107.541 156.56 107.214 155.613 107.214 154.36V150.1H105.334V148.22H107.214V145.3H109.714V148.22H112.294V150.1H109.714V154.32C109.714 155.627 110.321 156.28 111.534 156.28ZM113.917 158V148.22H116.417V158H113.917ZM113.777 143.68H116.537V146.14H113.777V143.68ZM123.455 158.16C122.455 158.16 121.575 157.953 120.815 157.54C120.069 157.127 119.489 156.533 119.075 155.76C118.662 154.987 118.455 154.087 118.455 153.06C118.455 152.033 118.662 151.14 119.075 150.38C119.489 149.607 120.069 149.013 120.815 148.6C121.575 148.187 122.455 147.98 123.455 147.98C124.455 147.98 125.329 148.187 126.075 148.6C126.835 149.013 127.415 149.607 127.815 150.38C128.229 151.14 128.435 152.033 128.435 153.06C128.435 154.087 128.229 154.987 127.815 155.76C127.415 156.533 126.835 157.127 126.075 157.54C125.329 157.953 124.455 158.16 123.455 158.16ZM123.435 156.22C124.249 156.22 124.869 155.953 125.295 155.42C125.722 154.887 125.935 154.1 125.935 153.06C125.935 152.033 125.722 151.253 125.295 150.72C124.869 150.173 124.255 149.9 123.455 149.9C122.655 149.9 122.035 150.173 121.595 150.72C121.169 151.253 120.955 152.033 120.955 153.06C120.955 154.1 121.169 154.887 121.595 155.42C122.022 155.953 122.635 156.22 123.435 156.22ZM136.179 147.98C137.353 147.98 138.226 148.313 138.799 148.98C139.373 149.647 139.659 150.653 139.659 152V158H137.159V152.14C137.159 151.38 137.013 150.827 136.719 150.48C136.439 150.133 135.993 149.96 135.379 149.96C134.659 149.96 134.079 150.187 133.639 150.64C133.213 151.093 132.999 151.7 132.999 152.46V158H130.499V148.22H132.939V149.68C133.273 149.133 133.719 148.713 134.279 148.42C134.839 148.127 135.473 147.98 136.179 147.98ZM142.258 153.64V151.66H148.218V153.64H142.258ZM160.603 143.9V158H158.123V156.42C157.83 156.967 157.403 157.393 156.843 157.7C156.297 158.007 155.67 158.16 154.963 158.16C154.123 158.16 153.37 157.947 152.703 157.52C152.05 157.093 151.537 156.493 151.163 155.72C150.803 154.933 150.623 154.033 150.623 153.02C150.623 152.007 150.803 151.12 151.163 150.36C151.537 149.6 152.05 149.013 152.703 148.6C153.357 148.187 154.11 147.98 154.963 147.98C155.67 147.98 156.297 148.127 156.843 148.42C157.39 148.713 157.81 149.127 158.103 149.66V143.9H160.603ZM155.623 156.22C156.423 156.22 157.037 155.947 157.463 155.4C157.903 154.853 158.123 154.073 158.123 153.06C158.123 152.047 157.903 151.273 157.463 150.74C157.037 150.193 156.43 149.92 155.643 149.92C154.843 149.92 154.223 150.187 153.783 150.72C153.343 151.253 153.123 152.02 153.123 153.02C153.123 154.033 153.343 154.82 153.783 155.38C154.223 155.94 154.837 156.22 155.623 156.22ZM171.755 153.56H165.095C165.175 154.467 165.448 155.14 165.915 155.58C166.382 156.02 167.048 156.24 167.915 156.24C168.995 156.24 169.982 155.893 170.875 155.2L171.595 156.92C171.142 157.293 170.568 157.593 169.875 157.82C169.195 158.047 168.508 158.16 167.815 158.16C166.215 158.16 164.948 157.707 164.015 156.8C163.095 155.893 162.635 154.653 162.635 153.08C162.635 152.08 162.835 151.193 163.235 150.42C163.635 149.647 164.195 149.047 164.915 148.62C165.648 148.193 166.475 147.98 167.395 147.98C168.742 147.98 169.802 148.413 170.575 149.28C171.362 150.147 171.755 151.34 171.755 152.86V153.56ZM167.455 149.74C166.788 149.74 166.248 149.953 165.835 150.38C165.435 150.807 165.188 151.42 165.095 152.22H169.615C169.588 151.407 169.388 150.793 169.015 150.38C168.642 149.953 168.122 149.74 167.455 149.74ZM176.921 148.22H179.501V150.1H176.921V158H174.421V150.1H172.541V148.22H174.421C174.421 146.82 174.781 145.767 175.501 145.06C176.235 144.353 177.368 143.96 178.901 143.88L179.881 143.82L180.041 145.68L179.101 145.72C178.315 145.76 177.755 145.94 177.421 146.26C177.088 146.567 176.921 147.067 176.921 147.76V148.22ZM185.012 147.98C186.385 147.98 187.405 148.313 188.072 148.98C188.738 149.647 189.072 150.673 189.072 152.06V158H186.692V156.5C186.465 157.02 186.105 157.427 185.612 157.72C185.132 158.013 184.572 158.16 183.932 158.16C183.278 158.16 182.685 158.027 182.152 157.76C181.618 157.493 181.198 157.127 180.892 156.66C180.585 156.193 180.432 155.673 180.432 155.1C180.432 154.38 180.612 153.813 180.972 153.4C181.345 152.987 181.945 152.687 182.772 152.5C183.598 152.313 184.738 152.22 186.192 152.22H186.692V151.76C186.692 151.093 186.545 150.613 186.252 150.32C185.972 150.027 185.498 149.88 184.832 149.88C184.312 149.88 183.765 149.973 183.192 150.16C182.632 150.333 182.078 150.58 181.532 150.9L180.832 149.18C181.378 148.833 182.038 148.547 182.812 148.32C183.585 148.093 184.318 147.98 185.012 147.98ZM184.432 156.36C185.098 156.36 185.638 156.14 186.052 155.7C186.478 155.247 186.692 154.667 186.692 153.96V153.54H186.332C185.438 153.54 184.745 153.58 184.252 153.66C183.758 153.74 183.405 153.88 183.192 154.08C182.978 154.28 182.872 154.553 182.872 154.9C182.872 155.327 183.018 155.68 183.312 155.96C183.605 156.227 183.978 156.36 184.432 156.36ZM200.592 148.22V158H198.153V156.5C197.846 157.033 197.433 157.447 196.913 157.74C196.393 158.02 195.806 158.16 195.153 158.16C192.753 158.16 191.553 156.813 191.553 154.12V148.22H194.053V154.14C194.053 154.833 194.193 155.347 194.473 155.68C194.753 156.013 195.193 156.18 195.793 156.18C196.486 156.18 197.039 155.953 197.453 155.5C197.879 155.033 198.093 154.42 198.093 153.66V148.22H200.592ZM203.195 158V143.9H205.695V158H203.195ZM213.273 156.28C213.566 156.28 213.873 156.26 214.193 156.22L214.073 158.08C213.673 158.12 213.306 158.14 212.973 158.14C211.599 158.14 210.586 157.827 209.933 157.2C209.279 156.56 208.953 155.613 208.953 154.36V150.1H207.073V148.22H208.953V145.3H211.453V148.22H214.033V150.1H211.453V154.32C211.453 155.627 212.059 156.28 213.273 156.28ZM215.826 155.24H218.626V158H215.826V155.24ZM224.646 158.16C223.779 158.16 222.979 158.053 222.246 157.84C221.526 157.627 220.913 157.32 220.406 156.92L221.106 155.18C222.146 155.94 223.339 156.32 224.686 156.32C225.259 156.32 225.693 156.227 225.986 156.04C226.293 155.853 226.446 155.587 226.446 155.24C226.446 154.947 226.339 154.72 226.126 154.56C225.926 154.4 225.559 154.253 225.026 154.12L223.426 153.76C222.519 153.56 221.846 153.233 221.406 152.78C220.966 152.327 220.746 151.74 220.746 151.02C220.746 150.42 220.913 149.893 221.246 149.44C221.593 148.973 222.066 148.613 222.666 148.36C223.279 148.107 223.986 147.98 224.786 147.98C225.479 147.98 226.146 148.087 226.786 148.3C227.439 148.513 228.013 148.813 228.506 149.2L227.806 150.9C226.793 150.167 225.779 149.8 224.766 149.8C224.219 149.8 223.793 149.9 223.486 150.1C223.179 150.3 223.026 150.58 223.026 150.94C223.026 151.207 223.119 151.427 223.306 151.6C223.506 151.773 223.819 151.907 224.246 152L225.906 152.38C226.879 152.593 227.593 152.933 228.046 153.4C228.499 153.853 228.726 154.453 228.726 155.2C228.726 156.107 228.359 156.827 227.626 157.36C226.893 157.893 225.899 158.16 224.646 158.16ZM237.476 148.24H239.936L235.656 158H233.476L229.236 148.24H231.876L234.636 155.14L237.476 148.24ZM250.508 148.22V157.1C250.508 158.633 250.081 159.793 249.228 160.58C248.388 161.367 247.141 161.76 245.488 161.76C244.634 161.76 243.814 161.647 243.028 161.42C242.241 161.207 241.554 160.9 240.968 160.5L241.668 158.74C242.881 159.473 244.134 159.84 245.428 159.84C247.161 159.84 248.028 158.987 248.028 157.28V156C247.734 156.547 247.308 156.973 246.748 157.28C246.188 157.573 245.548 157.72 244.827 157.72C243.974 157.72 243.214 157.52 242.548 157.12C241.894 156.707 241.381 156.133 241.007 155.4C240.634 154.667 240.448 153.82 240.448 152.86C240.448 151.9 240.628 151.053 240.988 150.32C241.361 149.573 241.881 149 242.548 148.6C243.214 148.187 243.974 147.98 244.827 147.98C245.548 147.98 246.188 148.133 246.748 148.44C247.308 148.733 247.734 149.153 248.028 149.7V148.22H250.508ZM245.488 155.78C246.288 155.78 246.908 155.52 247.348 155C247.801 154.48 248.028 153.767 248.028 152.86C248.028 151.94 247.801 151.22 247.348 150.7C246.908 150.18 246.288 149.92 245.488 149.92C244.701 149.92 244.081 150.18 243.628 150.7C243.174 151.22 242.948 151.94 242.948 152.86C242.948 153.753 243.174 154.467 243.628 155C244.081 155.52 244.701 155.78 245.488 155.78Z" fill="#212429"/>
<path d="M481.438 25.502H492.983L513.451 59.2215H514.2L513.451 53.2451V25.502H522V70.4823H510.456L489.988 36.7628H489.239L489.988 42.7392V70.4823H481.438V25.502Z" fill="black"/>
<path d="M448.365 24C462.842 24 473.264 34.5059 473.264 47.9685C473.264 61.4312 462.842 71.9371 448.365 71.9371C433.888 71.9371 423.466 61.4312 423.466 47.9685C423.466 34.5059 433.825 24 448.365 24ZM448.365 63.6959C457.663 63.6959 464.34 56.9646 464.34 47.9685C464.34 38.9725 457.663 32.2412 448.365 32.2412C439.067 32.2412 432.39 38.9725 432.39 47.9685C432.39 56.9646 439.067 63.6959 448.365 63.6959Z" fill="black"/>
<path d="M406.68 25.502H415.229V70.4823H406.68V25.502Z" fill="black"/>
<path d="M360.189 25.502H400.751V33.7431H384.776V70.4823H376.227V33.7431H360.189V25.502Z" fill="black"/>
<path d="M328.551 25.502H348.77L361.313 70.4823H352.763L349.768 59.5989H327.428L324.432 70.4823H315.883L328.551 25.502ZM347.584 51.4207L342.779 33.806H334.604L329.799 51.4207H347.584Z" fill="black"/>
<path d="M276.57 25.502H317.132V33.7431H301.157V70.4823H292.607V33.7431H276.57V25.502Z" fill="black"/>
<path d="M243.433 57.0275C243.808 58.3486 244.494 59.6068 245.43 60.6134C247.115 62.4377 249.923 64.1363 254.978 64.1363C262.404 64.1363 265.399 61.1166 265.399 58.1599C265.399 53.3788 258.161 52.2464 250.922 50.6736C243.621 49.1009 236.444 46.0183 236.444 37.5256C236.444 30.4168 242.747 24 254.666 24C263.028 24 267.833 27.3971 270.579 30.7313C272.201 32.7444 273.324 35.0092 274.011 37.4626H265.087C264.713 36.519 264.151 35.5124 263.215 34.6946C261.718 33.2477 259.097 31.8637 254.666 31.8637C247.926 31.8637 245.368 34.1284 245.368 37.0852C245.368 40.4823 249.487 42.055 254.541 43.0616C263.09 44.7602 274.385 46.8991 274.385 57.6566C274.385 65.1428 267.771 71.8742 255.04 71.8742C245.618 71.8742 240.313 68.2254 237.505 64.3879C235.883 62.1861 234.759 59.6697 234.26 56.9017H243.433V57.0275Z" fill="black"/>
<path d="M218.036 47.9685C218.036 34.0655 206.866 24 191.39 24H171.483V72H191.39C206.803 71.9371 218.036 61.8716 218.036 47.9685ZM185.649 59.7955V36.1415H191.015C198.441 36.1415 203.122 40.671 203.122 47.9685C203.122 55.2661 198.504 59.7955 191.015 59.7955H185.649Z" fill="black"/>
<path d="M155.82 55.0144C157.318 54.3224 158.691 53.2529 159.939 51.9318C162.747 49.038 164.12 45.4522 164.12 41.2372C164.12 31.0459 156.195 24 144.9 24H119.314V72H133.48V58.1599H142.154L149.892 72H164.182L154.946 55.4548L155.82 55.0144ZM143.527 46.6474H133.542V35.7641H143.527C147.021 35.7641 149.642 38.0917 149.642 41.1743C149.642 44.3198 147.021 46.6474 143.527 46.6474Z" fill="black"/>
<path d="M47.707 69.6478L95.4514 87.4158V71.4846L47.707 53.7166L0 71.4846V87.4158L47.707 69.6478Z" fill="black"/>
<path d="M47.707 69.6479L0 87.4159L17.708 96L47.707 84.8294L77.7434 96L95.4514 87.4159L47.707 69.6479Z" fill="#19C1CE"/>
<path d="M47.707 26.3523L0 8.58411V24.5154L47.707 42.2836L95.4514 24.5154V8.58411L47.707 26.3523Z" fill="black"/>
<path d="M47.707 26.3523L95.4514 8.58411L77.7434 0L47.707 11.1707L17.708 0L0 8.58411L47.707 26.3523Z" fill="#19C1CE"/>
</svg>
